# xmcd CD database file
#
# Track frame offsets:
#	150
#	18001
#	35584
#	53425
#
# Disc length: 944 seconds
#
# Revision: 1
# Processed by: cddbd v1.5.2PL0 Copyright (c) Steve Scherf et al.
# Submitted via: CDex 1.51
#
DISCID=2103ae04
DTITLE=Bata Illic - Nicht für immer (aber ewig)
DYEAR=2002
DGENRE=Schlager
TTITLE0=nicht für immer (aber ewig)
TTITLE1=komm doch an bord meiner liebe
TTITLE2=nicht immer ( aber ewig) instrumental
TTITLE3=komm doch an bord meiner liebe instrumental
EXTD=YEAR: 2002
EXTT0=
EXTT1=
EXTT2=
EXTT3=
PLAYORDER=
